<svg xmlns="http://www.w3.org/2000/svg" width="272.000000pt" height="258.000000pt" viewBox="0 0 272.000000 258.000000" preserveAspectRatio="xMidYMid meet"><g transform="translate(0.000000,258.000000) scale(0.100000,-0.100000)" fill="#000000" stroke="none"><path d="M422 2514 c-19 -13 -22 -24 -22 -90 l0 -74 90 0 90 0 0 74 c0 66 -3 77 -22 90 -12 9 -43 16 -68 16 -25 0 -56 -7 -68 -16z"></path><path d="M324 2243 c-13 -9 -24 -107 -17 -145 4 -23 11 -27 47 -30 l41 -3 5 -375 c4 -309 3 -381 -9 -407 -16 -37 -3 -63 30 -63 11 0 19 -5 19 -11 0 -7 10 -5 25 5 17 11 41 16 72 14 l46 -3 1 415 1 415 47 3 48 3 -1 -467 0 -466 -172 2 c-95 2 -180 2 -190 2 -16 -2 -17 -12 -15 -95 l3 -92 48 -3 47 -3 0 -445 0 -444 90 0 90 0 2 448 3 447 908 -4 c757 -3 907 -2 907 10 0 12 -91 269 -181 508 -21 57 -39 117 -39 132 0 16 49 165 110 331 78 216 106 306 99 314 -8 10 -233 13 -1032 13 -562 1 -1027 -2 -1033 -6z"></path></g></svg>