<svg xmlns="http://www.w3.org/2000/svg" width="852" height="371" viewBox="0 0 852 371" fill="none"><g clip-path="url(#clip0)"><rect y="98.1006" width="277" height="277" rx="53" transform="rotate(-10 0 98.1006)" fill="#393939"></rect><path fill-rule="evenodd" clip-rule="evenodd" d="M111.868 219.012C116.599 245.841 142.183 263.756 169.012 259.025C195.842 254.294 213.756 228.71 209.025 201.88L246.525 195.268C254.908 242.808 223.164 288.142 175.625 296.525C128.085 304.907 82.7507 273.164 74.3682 225.624L111.868 219.012Z" fill="#20DEB0"></path><path fill-rule="evenodd" clip-rule="evenodd" d="M111.868 219.012C116.599 245.841 142.183 263.756 169.012 259.025C195.842 254.294 213.756 228.71 209.025 201.88L246.525 195.268C254.908 242.808 223.164 288.142 175.625 296.525C128.085 304.907 82.7507 273.164 74.3682 225.624L111.868 219.012Z" fill="#20DEB0"></path><path fill-rule="evenodd" clip-rule="evenodd" d="M209.026 201.881C204.295 175.051 178.711 157.137 151.881 161.868C125.052 166.598 107.137 192.183 111.868 219.012L74.3685 225.624C65.986 178.085 97.7292 132.751 145.269 124.368C192.809 115.986 238.143 147.729 246.525 195.269L209.026 201.881Z" fill="#474DFF"></path><path d="M246.436 195.285C248.253 205.59 241.372 215.418 231.066 217.235C220.76 219.052 210.933 212.171 209.115 201.865C207.298 191.559 214.18 181.732 224.485 179.915C234.791 178.098 244.618 184.979 246.436 195.285Z" fill="#474DFF"></path><path d="M111.778 219.028C113.596 229.333 106.714 239.161 96.4086 240.978C86.1029 242.795 76.2754 235.914 74.4582 225.608C72.6411 215.303 79.5224 205.475 89.828 203.658C100.134 201.841 109.961 208.722 111.778 219.028Z" fill="#20DEB0"></path><rect opacity="0.67" width="101" height="338" transform="matrix(-1 -4.32454e-09 -4.32454e-09 1 292.899 50)" fill="url(#paint0_linear)"></rect></g><g clip-path="url(#clip1)"><rect x="579" y="50" width="277" height="277" rx="53" transform="rotate(10 579 50)" fill="#393939"></rect><path fill-rule="evenodd" clip-rule="evenodd" d="M649.899 202.455C652.965 185.069 641.894 168.46 624.943 164.421C623.868 164.165 623.139 163.133 623.331 162.046L629.415 127.537C629.607 126.449 630.65 125.721 631.733 125.942C669.917 133.754 695.157 170.613 688.347 209.235C681.537 247.856 645.212 273.86 606.659 268.141C605.567 267.979 604.835 266.938 605.027 265.85L611.112 231.341C611.304 230.253 612.342 229.534 613.439 229.66C630.749 231.662 646.834 219.842 649.899 202.455Z" fill="#474DFF"></path><path fill-rule="evenodd" clip-rule="evenodd" d="M731.798 216.896C728.732 234.282 739.804 250.891 756.754 254.931C757.829 255.187 758.558 256.218 758.367 257.306L752.282 291.815C752.09 292.902 751.047 293.63 749.965 293.409C711.78 285.598 686.54 248.738 693.35 210.117C700.16 171.495 736.485 145.491 775.038 151.211C776.131 151.373 776.862 152.414 776.67 153.502L770.585 188.01C770.394 189.098 769.355 189.818 768.258 189.691C750.948 187.689 734.864 199.51 731.798 216.896Z" fill="#20DEB0"></path><rect opacity="0.67" x="534.899" y="50" width="101" height="338" fill="url(#paint1_linear)"></rect></g><rect x="240" width="371" height="371" rx="53" fill="#474DFF"></rect><path d="M460.045 124.579C467.5 117.126 479.636 117.126 487.091 124.579C494.545 132.032 494.545 144.167 487.091 151.62C482.773 155.937 476.864 157.891 470.864 157.028C470.591 156.982 470.273 156.982 470 157.028C468.227 156.801 466.364 157.028 464.591 157.846C462.091 158.982 460.318 161.073 459.455 163.481C458.591 165.844 458.636 168.526 459.773 170.934C466.182 184.796 463.227 201.384 452.409 212.2C441.591 223.016 425 225.97 411.136 219.562C408.636 218.426 405.955 218.381 403.545 219.29C401.182 220.153 399.182 221.925 398.045 224.38C397.318 225.97 397.045 227.606 397.136 229.242C397.091 229.56 397.091 229.879 397.136 230.197C398.136 236.287 396.136 242.513 391.773 246.876C384.318 254.329 372.182 254.329 364.727 246.876C361.091 243.24 359.136 238.468 359.136 233.333C359.136 228.243 361.136 223.425 364.727 219.789C369.045 215.472 374.955 213.518 380.955 214.381C381.045 214.381 381.136 214.381 381.273 214.381C381.909 214.518 382.545 214.609 383.227 214.609C384.636 214.609 386.045 214.336 387.364 213.7C389.818 212.563 391.545 210.564 392.455 208.246C393.364 205.837 393.364 203.111 392.182 200.611C385.773 186.75 388.727 170.162 399.545 159.346C410.364 148.529 426.955 145.575 440.818 151.983C443.273 153.119 446 153.165 448.364 152.301C450.727 151.438 452.773 149.666 453.909 147.211C454.773 145.303 455 143.258 454.682 141.303V141.258C453.682 135.168 455.682 128.942 460.045 124.579ZM441.136 200.929C449.409 192.658 449.409 179.251 441.136 170.98C432.864 162.709 419.455 162.709 411.182 170.98C402.909 179.251 402.909 192.658 411.182 200.929C419.455 209.2 432.864 209.2 441.136 200.929ZM426 58C496.682 58 554 115.308 554 185.977C554 256.647 496.727 314 426 314C355.273 314 298 256.692 298 185.977C298 115.263 355.318 58 426 58ZM494.227 158.755C505.545 147.439 505.545 129.124 494.227 117.808C482.909 106.491 464.591 106.491 453.273 117.808C449.091 121.989 446.455 127.17 445.364 132.578C424.864 124.852 401.318 129.76 385.636 145.439C369.955 161.118 365.045 184.659 372.818 205.201C367.364 206.292 362.182 208.928 357.955 213.154C346.636 224.47 346.636 242.785 357.955 254.102C369.273 265.418 387.591 265.418 398.909 254.102C403.136 249.875 405.818 244.603 406.864 239.15C413.227 241.513 419.864 242.694 426.455 242.694C441.136 242.694 455.636 237.014 466.409 226.243C482 210.655 486.955 187.25 479.364 166.753C484.773 165.617 490 162.981 494.227 158.755Z" fill="white"></path><defs><linearGradient id="paint0_linear" x1="40.1006" y1="161" x2="101.101" y2="161" gradientUnits="userSpaceOnUse"><stop></stop><stop offset="1" stop-opacity="0"></stop></linearGradient><linearGradient id="paint1_linear" x1="575" y1="211" x2="636" y2="211" gradientUnits="userSpaceOnUse"><stop></stop><stop offset="1" stop-opacity="0"></stop></linearGradient><clipPath id="clip0"><rect y="98.1006" width="277" height="277" rx="53" transform="rotate(-10 0 98.1006)" fill="white"></rect></clipPath><clipPath id="clip1"><rect x="579" y="50" width="277" height="277" rx="53" transform="rotate(10 579 50)" fill="white"></rect></clipPath></defs></svg>